<svg width="41" height="41" viewBox="0 0 41 41" fill="none" xmlns="http://www.w3.org/2000/svg">
<rect width="40.4776" height="40.4776" transform="translate(0.477661)" fill="#FAFCFB"/>
<path d="M14.7244 32.4776C13.1073 32.4776 11.9887 32.1634 11.3684 31.535C10.7482 30.9066 10.4381 29.9336 10.4381 28.6159V24.1461C10.4381 23.3758 10.2941 22.7981 10.0061 22.4129C9.71814 22.0075 9.20866 21.7642 8.47766 21.6831V18.8249C9.29726 18.7235 9.8289 18.4499 10.0726 18.0039C10.3162 17.5377 10.4381 16.8484 10.4381 15.9362V11.8921C10.4381 10.5745 10.7482 9.60143 11.3684 8.97302C11.9887 8.32434 13.1073 8 14.7244 8H17.3719V11.3901H16.6332H15.8944C15.3406 11.3901 14.964 11.5117 14.7647 11.755C14.5875 11.978 14.4989 12.353 14.4989 12.88V17.3958C14.4989 18.0242 14.3549 18.5918 14.0669 19.0985C13.8011 19.5851 13.3802 19.9702 12.8043 20.254C13.3802 20.5378 13.8011 20.9331 14.0669 21.4399C14.3549 21.9264 14.4989 22.4839 14.4989 23.1123V27.628C14.4989 28.1348 14.5875 28.5098 14.7647 28.753C14.964 28.976 15.3406 29.0875 15.8944 29.0875H17.3719V32.4776H14.7244Z" fill="#0BDDA3"/>
<path d="M31.9651 25.317C32.6252 23.7826 32.9553 22.0533 32.9553 20.1292C32.9553 17.6936 32.4248 15.5747 31.3639 13.7723C30.303 11.9456 28.8177 10.533 26.9081 9.53442C25.022 8.51147 22.8058 8 20.2596 8H19.2096L19.2096 11.4342L20.2596 11.4342C22.0514 11.4342 23.6192 11.7995 24.963 12.5302C26.3069 13.2609 27.356 14.2838 28.1104 15.599C28.8649 16.8899 29.2421 18.3999 29.2421 20.1292C29.2421 21.5175 29.0063 22.7718 28.5348 23.8922C28.0868 25.0126 27.4385 25.9502 26.5898 26.7053C25.7646 27.4603 24.798 28.0448 23.6899 28.4589C22.5819 28.8729 21.3795 29.08 20.0828 29.08H19.2096L19.2096 32.4776H20.0828C21.9217 32.4776 23.6192 32.1975 25.1752 31.6373C26.7312 31.0772 28.0868 30.2612 29.2421 29.1896C30.4209 28.1179 31.3285 26.8271 31.9651 25.317Z" fill="#121C29"/>
</svg>
